
<svg version="1.1" xmlns="http://www.w3.org/2000/svg" width="60" height="60" fill="#00695c" viewBox="0 0 32 32">
<title>blogger</title>
<path d="M31.977 12.399c-0.094-0.376-0.227-0.744-0.396-1.093-0.112-0.231-0.39-0.327-0.621-0.216s-0.328 0.39-0.216 0.621c0.112 0.232 0.206 0.473 0.279 0.72h-6.419c-0.646-1.084-1.49-2.038-2.482-2.81 0.336-0.185 0.694-0.328 1.064-0.426v0.123c0 0.769 0.625 1.394 1.394 1.394h1.721c0.769 0 1.394-0.626 1.394-1.394v-0.124c0.719 0.191 1.385 0.55 1.945 1.053 0.089 0.080 0.2 0.119 0.31 0.119 0.127 0 0.254-0.052 0.346-0.154 0.172-0.191 0.156-0.485-0.035-0.656-0.732-0.657-1.614-1.108-2.567-1.317v-0.401c0.298-0.335 0.546-0.719 0.728-1.13 0.748-0.065 1.338-0.694 1.338-1.459v-0.278c0-0.606-0.411-1.118-0.968-1.272v-2.801c0-0.427-0.348-0.775-0.775-0.775h-3.049c-1.589 0-2.882 1.293-2.882 2.882v0.694c-0.558 0.154-0.968 0.666-0.968 1.272v0.278c0 0.765 0.589 1.395 1.338 1.459 0.182 0.411 0.429 0.795 0.728 1.13v0.4c-0.673 0.148-1.319 0.421-1.895 0.8-1.55-0.974-3.382-1.539-5.344-1.539-1.891 0-3.714 0.524-5.292 1.501-0.567-0.364-1.183-0.62-1.838-0.763v-0.4c0.298-0.335 0.546-0.719 0.728-1.13 0.748-0.065 1.338-0.694 1.338-1.459v-0.278c0-0.606-0.411-1.118-0.968-1.272v-1.686c0-1.042-0.848-1.89-1.89-1.89h-2.925c-1.042 0-1.89 0.848-1.89 1.89v1.686c-0.558 0.154-0.968 0.666-0.968 1.272v0.278c0 0.765 0.589 1.395 1.338 1.459 0.182 0.411 0.429 0.795 0.728 1.13v0.401c-2.094 0.458-3.757 2.061-4.281 4.16-0.058 0.233-0.007 0.475 0.141 0.664s0.371 0.298 0.611 0.298h6.019c-0.508 1.104-0.815 2.299-0.897 3.538-0.017 0.256 0.177 0.477 0.433 0.494s0.477-0.177 0.494-0.433c0.315-4.783 4.322-8.53 9.121-8.53 5.040 0 9.141 4.101 9.141 9.141s-4.101 9.141-9.141 9.141c-4.538 0-8.43-3.384-9.053-7.872-0.035-0.254-0.269-0.432-0.524-0.396s-0.432 0.27-0.396 0.524c0.331 2.385 1.515 4.578 3.334 6.174 1.836 1.611 4.194 2.499 6.64 2.499 0.951 0 1.872-0.133 2.745-0.38l2.041 3.571c0.383 0.67 1.085 1.046 1.807 1.046 0.349 0 0.703-0.088 1.027-0.273 0.482-0.275 0.828-0.722 0.973-1.257s0.075-1.096-0.201-1.577l-1.971-3.449c2.227-1.849 3.648-4.637 3.648-7.75 0-1.502-0.331-2.928-0.923-4.209h6.131c0.24 0 0.463-0.109 0.611-0.298s0.199-0.431 0.141-0.664zM26.301 9.783h-1.721c-0.256 0-0.465-0.209-0.465-0.465v-0.664c0.398 0.23 0.852 0.354 1.325 0.354s0.927-0.123 1.325-0.354v0.664c0 0.256-0.208 0.465-0.465 0.465zM24.969 1.052h2.894v1.932h-4.845c0.011-1.067 0.882-1.932 1.952-1.932zM22.774 5.784h-0.19c-0.295 0-0.535-0.24-0.535-0.535v-0.278c0-0.215 0.175-0.39 0.39-0.39h0.113c0.257 0 0.465-0.208 0.465-0.465v-0.202h4.846v0.202c0 0.257 0.208 0.465 0.465 0.465h0.113c0.215 0 0.39 0.175 0.39 0.39v0.278c0 0.295-0.24 0.535-0.535 0.535h-0.19c-0.197 0-0.372 0.124-0.438 0.31-0.164 0.464-0.433 0.894-0.777 1.245l-0.219 0.223c-0.327 0.333-0.764 0.517-1.231 0.517s-0.904-0.184-1.231-0.517l-0.219-0.223c-0.344-0.351-0.613-0.781-0.777-1.245-0.066-0.186-0.241-0.31-0.438-0.31zM5.234 8.654c0.398 0.23 0.852 0.354 1.325 0.354s0.927-0.123 1.325-0.354v0.664c0 0.256-0.208 0.465-0.465 0.465h-1.721c-0.256 0-0.465-0.209-0.465-0.465zM4.137 2.012c0-0.53 0.431-0.961 0.961-0.961h2.925c0.53 0 0.961 0.431 0.961 0.961v0.972h-4.846zM3.894 5.784h-0.19c-0.295 0-0.535-0.24-0.535-0.535v-0.278c0-0.215 0.175-0.39 0.39-0.39h0.113c0.257 0 0.465-0.208 0.465-0.465v-0.202h4.846v0.202c0 0.257 0.208 0.465 0.465 0.465h0.113c0.215 0 0.39 0.175 0.39 0.39v0.278c0 0.295-0.24 0.535-0.535 0.535h-0.19c-0.197 0-0.372 0.124-0.438 0.31-0.164 0.464-0.433 0.894-0.777 1.245l-0.219 0.223c-0.327 0.333-0.764 0.517-1.231 0.517s-0.904-0.184-1.231-0.517l-0.219-0.223c-0.344-0.351-0.613-0.781-0.777-1.245-0.066-0.186-0.241-0.31-0.438-0.31zM9.050 10.231c-0.697 0.655-1.29 1.396-1.768 2.201h-6.304c0.47-1.594 1.735-2.816 3.327-3.237v0.124c0 0.769 0.625 1.394 1.394 1.394h1.721c0.769 0 1.394-0.626 1.394-1.394v-0.123c0.346 0.091 0.679 0.221 0.995 0.389-0.262 0.202-0.516 0.417-0.76 0.646zM23.533 29.231c0.152 0.266 0.192 0.576 0.111 0.872s-0.272 0.543-0.538 0.695c-0.55 0.314-1.252 0.123-1.566-0.427l-1.95-3.412c0.721-0.281 1.401-0.642 2.031-1.073z"></path>
<path d="M8.645 20.924c0.024 0.669 0.368 1.274 0.916 1.641-0.047 0.14-0.089 0.282-0.125 0.427-0.058 0.233-0.007 0.475 0.141 0.664s0.371 0.298 0.611 0.298h11.569c0.24 0 0.463-0.109 0.611-0.298s0.199-0.431 0.141-0.664c-0.039-0.155-0.084-0.307-0.135-0.457 0.522-0.371 0.85-0.965 0.873-1.611 0.020-0.567-0.186-1.104-0.58-1.511-0.074-0.076-0.084-0.201-0.025-0.298 0.196-0.322 0.299-0.693 0.299-1.072 0-0.71-0.358-1.362-0.958-1.744-0.098-0.062-0.147-0.17-0.123-0.269 0.112-0.46 0.061-0.949-0.143-1.377-0.243-0.51-0.692-0.902-1.23-1.076-0.11-0.034-0.178-0.15-0.174-0.269-0.005-0.104-0.018-0.211-0.037-0.319-0.045-0.253-0.287-0.42-0.54-0.375s-0.421 0.287-0.375 0.54c0.013 0.074 0.021 0.146 0.024 0.216 0.019 0.501 0.347 0.94 0.816 1.091 0.3 0.097 0.541 0.307 0.677 0.592 0.114 0.239 0.141 0.501 0.079 0.757-0.118 0.486 0.094 0.997 0.527 1.273 0.33 0.21 0.528 0.569 0.528 0.96 0 0.208-0.057 0.412-0.164 0.589-0.279 0.459-0.217 1.046 0.152 1.427 0.217 0.224 0.33 0.519 0.319 0.832-0.010 0.288-0.132 0.558-0.332 0.759-0.772-1.414-2.123-2.452-3.729-2.812v-0.363c0.179-0.213 0.337-0.443 0.471-0.687 0.669-0.135 1.175-0.727 1.175-1.436v-0.278c0-0.475-0.253-0.902-0.646-1.135v-0.845c0-0.158-0.070-0.307-0.191-0.409s-0.281-0.144-0.436-0.116c-0.209 0.037-0.424 0.056-0.637 0.056-0.614 0-1.22-0.156-1.753-0.451-0.183-0.101-0.402-0.101-0.585-0-0.533 0.295-1.139 0.451-1.753 0.451-0.213 0-0.428-0.019-0.637-0.056-0.156-0.028-0.315 0.014-0.437 0.116s-0.191 0.251-0.191 0.409v0.845c-0.393 0.233-0.646 0.659-0.646 1.135v0.278c0 0.708 0.506 1.301 1.175 1.436 0.135 0.245 0.291 0.474 0.471 0.688l0 0.375c-1.592 0.374-2.931 1.42-3.692 2.833-0.22-0.204-0.358-0.49-0.369-0.792-0.011-0.312 0.102-0.608 0.319-0.832 0.368-0.381 0.431-0.968 0.152-1.427-0.107-0.177-0.164-0.38-0.164-0.589 0-0.391 0.197-0.75 0.528-0.96 0.434-0.276 0.646-0.788 0.527-1.273-0.062-0.257-0.035-0.518 0.079-0.757 0.136-0.285 0.376-0.495 0.677-0.592 0.469-0.152 0.796-0.59 0.815-1.091l0.001-0.015c0.018-0.357 0.269-2.137 3.439-2.137 1.041 0 1.87 0.194 2.465 0.576 0.216 0.139 0.503 0.076 0.642-0.14s0.076-0.504-0.14-0.642c-0.748-0.48-1.746-0.723-2.968-0.723-3.11 0-4.297 1.627-4.367 3.019 0.004 0.12-0.065 0.236-0.174 0.269-0.538 0.174-0.986 0.566-1.23 1.076-0.204 0.428-0.255 0.917-0.143 1.377 0.024 0.099-0.025 0.207-0.123 0.269-0.6 0.382-0.958 1.034-0.958 1.744 0 0.379 0.104 0.749 0.299 1.072 0.059 0.097 0.048 0.222-0.025 0.298-0.394 0.407-0.6 0.944-0.58 1.511zM14.564 19.335c0.411 0.255 0.885 0.392 1.381 0.392s0.971-0.137 1.381-0.392v0.779c0 0.256-0.209 0.465-0.465 0.465h-1.833c-0.256 0-0.465-0.209-0.465-0.465v-0.779zM13.454 16.887c-0.295 0-0.535-0.24-0.535-0.535v-0.278c0-0.179 0.121-0.334 0.295-0.377 0.207-0.052 0.351-0.238 0.351-0.451v-0.704c0.822 0.060 1.65-0.105 2.381-0.472 0.73 0.367 1.558 0.532 2.381 0.472v0.704c0 0.213 0.145 0.399 0.351 0.451 0.174 0.044 0.295 0.199 0.295 0.377v0.278c0 0.295-0.24 0.535-0.535 0.535h-0.009c-0.18 0-0.344 0.104-0.421 0.267-0.16 0.34-0.375 0.649-0.638 0.917l-0.216 0.22c-0.321 0.327-0.75 0.507-1.209 0.507s-0.888-0.18-1.209-0.507l-0.216-0.22c-0.263-0.268-0.477-0.576-0.638-0.917-0.077-0.163-0.241-0.267-0.421-0.267zM13.635 19.81v0.304c0 0.769 0.626 1.394 1.394 1.394h1.833c0.769 0 1.394-0.625 1.394-1.394v-0.319c1.577 0.429 2.832 1.649 3.298 3.229h-11.164c0.46-1.559 1.693-2.772 3.245-3.214z"></path>
</svg>
