
<svg version="1.1" xmlns="http://www.w3.org/2000/svg" width="60" height="60" fill="#00695c" viewBox="0 0 32 32">
<title>chatbot</title>
<path d="M27.5 18.453h-1.5v-1.5c0-1.379-1.122-2.5-2.5-2.5h-2.5v-1.5c0-0.276-0.224-0.5-0.5-0.5h-4v-1.071c0.86-0.223 1.5-1 1.5-1.929 0-1.103-0.897-2-2-2s-2 0.897-2 2c0 0.929 0.64 1.706 1.5 1.929v1.071h-4c-0.276 0-0.5 0.224-0.5 0.5v1.5h-2.5c-1.378 0-2.5 1.121-2.5 2.5v1.5h-1.5c-0.827 0-1.5 0.673-1.5 1.5v6c0 0.827 0.673 1.5 1.5 1.5h1.5v1.5c0 1.378 1.122 2.5 2.5 2.5h15c1.378 0 2.5-1.122 2.5-2.5v-1.5h1.5c0.827 0 1.5-0.673 1.5-1.5v-6c0-0.827-0.673-1.5-1.5-1.5zM15 9.453c0-0.552 0.448-1 1-1s1 0.448 1 1-0.448 1-1 1-1-0.448-1-1zM4.5 26.453c-0.276 0-0.5-0.224-0.5-0.5v-6c0-0.276 0.224-0.5 0.5-0.5h1.5v7zM12 13.453h8v1h-8zM25 28.953c0 0.827-0.673 1.5-1.5 1.5h-15c-0.827 0-1.5-0.673-1.5-1.5v-12c0-0.827 0.673-1.5 1.5-1.5h15c0.827 0 1.5 0.673 1.5 1.5zM28 25.953c0 0.276-0.224 0.5-0.5 0.5h-1.5v-7h1.5c0.276 0 0.5 0.224 0.5 0.5z"></path>
<path d="M20.5 23.453h-9c-0.276 0-0.5 0.224-0.5 0.5v0.5c0 2.757 2.243 5 5 5s5-2.243 5-5v-0.5c0-0.276-0.224-0.5-0.5-0.5zM16 28.453c-2.206 0-4-1.794-4-4h8c0 2.206-1.794 4-4 4z"></path>
<path d="M13 20.453c0-1.103-0.897-2-2-2s-2 0.897-2 2 0.897 2 2 2 2-0.897 2-2zM10 20.453c0-0.552 0.448-1 1-1s1 0.448 1 1-0.448 1-1 1-1-0.448-1-1z"></path>
<path d="M21 18.453c-1.103 0-2 0.897-2 2s0.897 2 2 2 2-0.897 2-2-0.897-2-2-2zM21 21.453c-0.552 0-1-0.448-1-1s0.448-1 1-1 1 0.448 1 1-0.448 1-1 1z"></path>
<path d="M8.146 11.306c0.095 0.095 0.223 0.146 0.354 0.146 0.065 0 0.13-0.012 0.191-0.038 0.187-0.078 0.309-0.259 0.309-0.462v-1.5h3c0.827 0 1.5-0.673 1.5-1.5v-6c0-0.827-0.673-1.5-1.5-1.5h-10c-0.827 0-1.5 0.673-1.5 1.5v6c0 0.827 0.673 1.5 1.5 1.5h4.293zM1.5 7.952v-6c0-0.276 0.224-0.5 0.5-0.5h10c0.275 0 0.5 0.224 0.5 0.5v6c0 0.276-0.225 0.5-0.5 0.5h-3.5c-0.276 0-0.5 0.224-0.5 0.5v0.793l-1.146-1.146c-0.094-0.094-0.221-0.146-0.354-0.146h-4.5c-0.276 0-0.5-0.224-0.5-0.5z"></path>
<path d="M30 2.453h-10c-0.827 0-1.5 0.673-1.5 1.5v6c0 0.827 0.673 1.5 1.5 1.5h3v1.5c0 0.202 0.122 0.384 0.308 0.462 0.062 0.025 0.127 0.038 0.192 0.038 0.13 0 0.258-0.051 0.354-0.146l1.854-1.854h4.293c0.827 0 1.5-0.673 1.5-1.5v-6c0-0.827-0.673-1.5-1.5-1.5zM30.5 9.953c0 0.275-0.224 0.5-0.5 0.5h-4.5c-0.133 0-0.26 0.053-0.354 0.146l-1.146 1.146v-0.793c0-0.276-0.224-0.5-0.5-0.5h-3.5c-0.276 0-0.5-0.225-0.5-0.5v-6c0-0.276 0.224-0.5 0.5-0.5h10c0.276 0 0.5 0.224 0.5 0.5z"></path>
<path d="M2.5 2.453h9v1h-9z"></path>
<path d="M2.5 6.452h9v1h-9z"></path>
<path d="M3.5 4.452h7v1h-7z"></path>
<path d="M20.5 4.452h9v1h-9z"></path>
<path d="M20.5 8.453h9v1h-9z"></path>
<path d="M21.5 6.452h7v1h-7z"></path>
</svg>
