
<svg version="1.1" xmlns="http://www.w3.org/2000/svg" width="60" height="60" fill="#00695c" viewBox="0 0 32 32">
<title>data-analytics</title>
<path d="M19.75 0c-6.755 0-12.25 5.495-12.25 12.25 0 2.872 0.994 5.515 2.655 7.606l-1.388 1.388-0.331-0.331c-0.548-0.548-1.44-0.548-1.989 0-0.432 0.432-0.524 1.078-0.275 1.601l-5.486 5.486c-0.914 0.914-0.914 2.401 0 3.315s2.401 0.914 3.315 0l5.486-5.486c0.523 0.249 1.168 0.157 1.601-0.275 0.548-0.548 0.548-1.44 0-1.989l-0.331-0.331 1.388-1.388c2.091 1.661 4.735 2.655 7.606 2.655 6.755 0 12.25-5.495 12.25-12.25s-5.495-12.25-12.25-12.25zM1.348 30.652c-0.432-0.432-0.523-1.078-0.274-1.6l1.875 1.875c-0.523 0.249-1.168 0.158-1.6-0.274zM3.668 30.32l-0.663-0.663 5.098-5.098 0.663 0.663zM10.424 24.891c-0.183 0.183-0.48 0.183-0.663 0l-1.326-1.326c-0.183-0.183-0.48-0.183-0.663 0l-5.43 5.43-0.663-0.663 5.43-5.43c0.183-0.183 0.183-0.48 0-0.663s-0.183-0.48 0-0.663c0.183-0.183 0.48-0.183 0.663 0l2.652 2.652c0.183 0.183 0.183 0.48 0 0.663zM10.092 22.57l-0.663-0.663 1.338-1.338c0.213 0.229 0.434 0.45 0.663 0.663zM19.75 23.563c-6.238 0-11.313-5.075-11.313-11.313s5.075-11.313 11.313-11.313 11.313 5.075 11.313 11.313-5.075 11.313-11.313 11.313z"></path>
<path d="M19.75 1.875c-2.409 0-4.756 0.844-6.609 2.377-0.199 0.165-0.227 0.46-0.062 0.66s0.46 0.227 0.66 0.062c1.685-1.394 3.82-2.162 6.012-2.162 5.204 0 9.438 4.234 9.438 9.438s-4.234 9.438-9.438 9.438-9.438-4.234-9.438-9.438c0-2.191 0.768-4.326 2.162-6.012 0.165-0.199 0.137-0.495-0.062-0.66s-0.495-0.137-0.66 0.062c-1.533 1.853-2.377 4.2-2.377 6.609 0 5.721 4.654 10.375 10.375 10.375s10.375-4.654 10.375-10.375-4.654-10.375-10.375-10.375z"></path>
<path d="M14.125 12.719c-0.775 0-1.406 0.631-1.406 1.406s0.631 1.406 1.406 1.406 1.406-0.631 1.406-1.406c0-0.217-0.049-0.422-0.137-0.606l1.875-1.875c0.184 0.088 0.389 0.137 0.606 0.137s0.422-0.049 0.606-0.137l1.875 1.875c-0.088 0.184-0.137 0.389-0.137 0.606 0 0.775 0.631 1.406 1.406 1.406s1.406-0.631 1.406-1.406c0-0.217-0.049-0.422-0.137-0.606l1.875-1.875c0.184 0.088 0.389 0.137 0.606 0.137 0.775 0 1.406-0.631 1.406-1.406s-0.631-1.406-1.406-1.406-1.406 0.631-1.406 1.406c0 0.217 0.049 0.422 0.137 0.606l-1.875 1.875c-0.184-0.088-0.389-0.137-0.606-0.137s-0.422 0.049-0.606 0.137l-1.875-1.875c0.088-0.184 0.137-0.389 0.137-0.606 0-0.775-0.631-1.406-1.406-1.406s-1.406 0.631-1.406 1.406c0 0.217 0.049 0.422 0.137 0.606l-1.875 1.875c-0.184-0.088-0.389-0.138-0.606-0.138zM14.125 14.594c-0.258 0-0.469-0.21-0.469-0.469s0.21-0.469 0.469-0.469 0.469 0.21 0.469 0.469-0.21 0.469-0.469 0.469zM25.375 9.906c0.259 0 0.469 0.21 0.469 0.469s-0.21 0.469-0.469 0.469-0.469-0.21-0.469-0.469 0.21-0.469 0.469-0.469zM21.625 13.656c0.259 0 0.469 0.21 0.469 0.469s-0.21 0.469-0.469 0.469-0.469-0.21-0.469-0.469 0.21-0.469 0.469-0.469zM17.875 9.906c0.259 0 0.469 0.21 0.469 0.469s-0.21 0.469-0.469 0.469-0.469-0.21-0.469-0.469 0.21-0.469 0.469-0.469z"></path>
</svg>
