
<svg version="1.1" xmlns="http://www.w3.org/2000/svg" width="60" height="60" fill="#00695c" viewBox="0 0 32 32">
<title>list</title>
<path d="M28.187 8.438c0-1.551-1.262-2.813-2.813-2.813h-1.099c-0.387-1.091-1.429-1.875-2.651-1.875h-1.143l-0.405-1.62c-0.314-1.254-1.436-2.13-2.729-2.13h-2.697c-1.293 0-2.415 0.876-2.729 2.13l-0.405 1.62h-1.143c-1.222 0-2.264 0.784-2.651 1.875h-1.099c-1.551 0-2.813 1.262-2.813 2.813v20.75c0 1.551 1.262 2.813 2.813 2.813h18.75c0.751 0 1.456-0.29 1.987-0.818 0.533-0.529 0.826-1.235 0.826-1.987-0-5.982-0-20.758-0-20.758zM9.437 6.563c0-0.517 0.421-0.938 0.938-0.938h1.875c0.43 0 0.805-0.293 0.909-0.71l0.582-2.33c0.104-0.418 0.479-0.71 0.909-0.71h2.697c0.431 0 0.805 0.292 0.91 0.71l0.582 2.33c0.104 0.417 0.479 0.71 0.91 0.71h1.875c0.517 0 0.938 0.421 0.938 0.938v0.938h-13.125v-0.938zM26.040 29.852c-0.177 0.176-0.413 0.272-0.665 0.272h-18.75c-0.517 0-0.938-0.421-0.938-0.937v-20.75c0-0.517 0.421-0.938 0.938-0.938h0.938v0.938c0 0.518 0.42 0.938 0.938 0.938h15c0.518 0 0.938-0.42 0.938-0.938v-0.938h0.938c0.517 0 0.938 0.421 0.938 0.938 0 0 0 14.777 0 20.758 0 0.249-0.097 0.482-0.273 0.657z"></path>
<path d="M14.788 11.587c-0.366-0.366-0.96-0.366-1.326 0l-3.087 3.087-1.212-1.212c-0.366-0.366-0.96-0.366-1.326 0s-0.366 0.96 0 1.326l1.875 1.875c0.183 0.183 0.423 0.275 0.663 0.275s0.48-0.091 0.663-0.275l3.75-3.75c0.366-0.366 0.366-0.96 0-1.326z"></path>
<path d="M14.788 17.212c-0.366-0.366-0.96-0.366-1.326 0l-3.087 3.087-1.212-1.212c-0.366-0.366-0.96-0.366-1.326 0s-0.366 0.96 0 1.326l1.875 1.875c0.183 0.183 0.423 0.275 0.663 0.275s0.48-0.091 0.663-0.275l3.75-3.75c0.366-0.366 0.366-0.96 0-1.326z"></path>
<path d="M14.788 22.837c-0.366-0.366-0.96-0.366-1.326 0l-3.087 3.087-1.212-1.212c-0.366-0.366-0.96-0.366-1.326 0s-0.366 0.96 0 1.326l1.875 1.875c0.183 0.183 0.423 0.275 0.663 0.275s0.48-0.091 0.663-0.275l3.75-3.75c0.366-0.366 0.366-0.96 0-1.326z"></path>
<path d="M23.5 13.188h-5.625c-0.518 0-0.938 0.42-0.938 0.938s0.42 0.938 0.938 0.938h5.625c0.518 0 0.938-0.42 0.938-0.938s-0.42-0.938-0.938-0.938z"></path>
<path d="M23.5 18.813h-5.625c-0.518 0-0.938 0.42-0.938 0.938s0.42 0.938 0.938 0.938h5.625c0.518 0 0.938-0.42 0.938-0.938s-0.42-0.938-0.938-0.938z"></path>
<path d="M23.5 24.438h-5.625c-0.518 0-0.938 0.42-0.938 0.938s0.42 0.938 0.938 0.938h5.625c0.518 0 0.938-0.42 0.938-0.938s-0.42-0.938-0.938-0.938z"></path>
<path d="M16.938 4.688c0 0.518-0.42 0.938-0.938 0.938s-0.938-0.42-0.938-0.938c0-0.518 0.42-0.938 0.938-0.938s0.938 0.42 0.938 0.938z"></path>
</svg>
