
<svg version="1.1" xmlns="http://www.w3.org/2000/svg" width="32" height="32" fill="#01579b" viewBox="0 0 32 32">
<title>mail</title>
<path d="M31.994 12.233c-0.003-0.037-0.011-0.073-0.022-0.108-0.007-0.031-0.017-0.062-0.030-0.092-0.015-0.029-0.033-0.056-0.053-0.082-0.021-0.030-0.044-0.058-0.071-0.083-0.009-0.007-0.012-0.018-0.021-0.025l-5.129-3.984v-4.129c0-0.884-0.716-1.6-1.6-1.6h-5.78l-2.314-1.797c-0.572-0.446-1.373-0.446-1.945 0l-2.315 1.797h-5.78c-0.884 0-1.6 0.716-1.6 1.6v4.129l-5.128 3.984c-0.009 0.008-0.013 0.018-0.021 0.025-0.027 0.025-0.050 0.053-0.071 0.083-0.021 0.025-0.038 0.053-0.053 0.082-0.013 0.030-0.023 0.060-0.030 0.092-0.011 0.035-0.018 0.070-0.022 0.107 0 0.011-0.006 0.021-0.006 0.032v18.136c0.001 0.339 0.111 0.669 0.313 0.941 0.003 0.005 0.004 0.011 0.007 0.015s0.012 0.009 0.017 0.015c0.3 0.394 0.766 0.627 1.261 0.629h28.801c0.497-0.002 0.965-0.235 1.265-0.631 0.004-0.005 0.011-0.007 0.014-0.012s0.004-0.010 0.008-0.015c0.203-0.272 0.312-0.602 0.313-0.941v-18.134c-0-0.011-0.006-0.021-0.006-0.032zM15.679 1.176c0.186-0.148 0.45-0.148 0.636 0l1.23 0.955h-3.093l1.227-0.955zM1.733 30.933l13.946-10.833c0.186-0.148 0.45-0.148 0.636 0l13.95 10.833h-28.533zM30.933 30.102l-13.961-10.843c-0.572-0.446-1.373-0.446-1.945 0l-13.962 10.843v-17.024l8.74 6.787c0.233 0.181 0.568 0.138 0.749-0.095s0.138-0.568-0.095-0.749l-8.879-6.895 3.752-2.916v4.121c0 0.295 0.239 0.533 0.533 0.533s0.533-0.239 0.533-0.533v-9.601c0-0.295 0.239-0.533 0.533-0.533h18.134c0.295 0 0.533 0.239 0.533 0.533v9.601c0 0.295 0.239 0.533 0.533 0.533s0.533-0.239 0.533-0.533v-4.121l3.752 2.916-8.895 6.907c-0.153 0.116-0.232 0.305-0.207 0.496s0.151 0.352 0.329 0.424c0.178 0.072 0.381 0.042 0.531-0.077l8.756-6.799v17.024z"></path>
<path d="M22.399 12.799v-2.133c0-3.535-2.866-6.4-6.4-6.4s-6.4 2.866-6.4 6.4 2.866 6.4 6.4 6.4c0.295 0 0.533-0.239 0.533-0.533s-0.239-0.533-0.533-0.533c-2.946 0-5.334-2.388-5.334-5.334s2.388-5.334 5.334-5.334 5.334 2.388 5.334 5.334v2.133c0 0.589-0.478 1.067-1.067 1.067s-1.067-0.478-1.067-1.067v-2.133c0-0.295-0.239-0.533-0.533-0.533s-0.533 0.239-0.533 0.533c0 1.178-0.955 2.133-2.133 2.133s-2.133-0.955-2.133-2.133 0.955-2.133 2.133-2.133c0.295 0 0.533-0.239 0.533-0.533s-0.239-0.533-0.533-0.533c-1.432-0.003-2.692 0.946-3.085 2.323s0.178 2.848 1.397 3.6c1.219 0.752 2.789 0.603 3.844-0.365 0.116 1.128 1.096 1.967 2.229 1.907s2.019-0.997 2.015-2.131z"></path>
</svg>
