
<svg version="1.1" xmlns="http://www.w3.org/2000/svg" width="60" height="60" fill="#00695c" viewBox="0 0 32 32">
<title>startup</title>
<path d="M16 5.010c-4.403 0-7.984 3.582-7.984 7.984 0 3.168 1.151 4.639 2.264 6.061 0.713 0.911 1.386 1.771 1.762 3.086 0.208 0.729 0.365 2.149 0.439 2.908h-0.488c-0.259 0-0.47 0.21-0.47 0.47v4.509c0 1.088 0.885 1.973 1.973 1.973h5.010c1.088 0 1.973-0.885 1.973-1.973v-4.509c0-0.259-0.21-0.47-0.47-0.47h-0.488c0.073-0.759 0.23-2.179 0.439-2.908 0.111-0.387 0.251-0.75 0.429-1.11 0.115-0.232 0.020-0.514-0.212-0.629s-0.514-0.020-0.629 0.212c-0.204 0.411-0.364 0.826-0.491 1.269-0.24 0.838-0.408 2.406-0.479 3.166h-5.152c-0.072-0.76-0.24-2.328-0.479-3.166-0.426-1.491-1.188-2.465-1.925-3.407-1.062-1.356-2.064-2.638-2.064-5.482 0-3.885 3.16-7.045 7.045-7.045s7.045 3.16 7.045 7.045c0 2.844-1.003 4.125-2.064 5.482-0.115 0.147-0.274 0.296-0.297 0.49-0.019 0.159 0.047 0.321 0.172 0.421s0.297 0.131 0.449 0.078c0.19-0.066 0.298-0.26 0.416-0.411 1.113-1.422 2.264-2.893 2.264-6.061 0-4.403-3.582-7.984-7.984-7.984zM19.538 30.027c0 0.57-0.464 1.033-1.033 1.033h-5.010c-0.57 0-1.033-0.464-1.033-1.033v-0.031h7.076v0.031zM19.538 29.057h-7.076v-1.065h7.076v1.065zM19.538 25.988v1.065h-7.076v-1.065h7.076z"></path>
<path d="M18.004 13.464c0.259 0 0.47-0.21 0.47-0.47v-0.501c0-1.088-0.885-1.973-1.973-1.973h-0.031v-1.033c0-0.259-0.21-0.47-0.47-0.47s-0.47 0.21-0.47 0.47v1.044c-1.123 0.11-2.004 1.060-2.004 2.212 0 1.226 0.997 2.223 2.223 2.223h0.501c0.708 0 1.284 0.576 1.284 1.284s-0.576 1.284-1.284 1.284h-0.751c-0.57 0-1.033-0.463-1.033-1.033 0-0.259-0.21-0.47-0.47-0.47s-0.47 0.21-0.47 0.47c0 1.088 0.885 1.973 1.973 1.973h0.031v1.033c0 0.259 0.21 0.47 0.47 0.47s0.47-0.21 0.47-0.47v-1.044c1.123-0.11 2.004-1.060 2.004-2.212 0-1.226-0.997-2.223-2.223-2.223h-0.501c-0.708 0-1.284-0.576-1.284-1.284s0.576-1.284 1.284-1.284h0.751c0.57 0 1.033 0.464 1.033 1.033v0.501c0 0.259 0.21 0.47 0.47 0.47z"></path>
<path d="M16 0c-0.259 0-0.47 0.21-0.47 0.47v2.004c0 0.259 0.21 0.47 0.47 0.47s0.47-0.21 0.47-0.47v-2.004c0-0.259-0.21-0.47-0.47-0.47z"></path>
<path d="M12.408 3.095l-0.767-1.851c-0.099-0.24-0.374-0.353-0.614-0.254s-0.353 0.374-0.254 0.614l0.767 1.851c0.104 0.252 0.411 0.363 0.653 0.236 0.212-0.111 0.306-0.374 0.215-0.595z"></path>
<path d="M8.893 5.223l-1.417-1.417c-0.183-0.183-0.481-0.183-0.664 0s-0.183 0.481 0 0.664l1.417 1.417c0.092 0.092 0.212 0.138 0.332 0.138 0.411 0 0.621-0.512 0.332-0.802z"></path>
<path d="M6.46 8.534l-1.851-0.767c-0.24-0.099-0.514 0.014-0.614 0.254s0.014 0.514 0.254 0.614l1.851 0.767c0.253 0.105 0.547-0.035 0.628-0.295 0.071-0.229-0.048-0.481-0.269-0.572z"></path>
<path d="M5.479 12.524h-2.004c-0.259 0-0.47 0.21-0.47 0.47s0.21 0.47 0.47 0.47h2.004c0.259 0 0.47-0.21 0.47-0.47s-0.21-0.47-0.47-0.47z"></path>
<path d="M6.714 16.84c-0.099-0.24-0.374-0.353-0.614-0.254l-1.851 0.767c-0.221 0.092-0.34 0.344-0.269 0.573 0.080 0.261 0.376 0.4 0.628 0.295l1.851-0.767c0.24-0.099 0.353-0.374 0.254-0.614z"></path>
<path d="M27.751 17.353l-1.851-0.767c-0.24-0.099-0.514 0.015-0.614 0.254s0.015 0.514 0.254 0.614l1.851 0.767c0.253 0.105 0.547-0.035 0.628-0.295 0.071-0.229-0.048-0.481-0.269-0.573z"></path>
<path d="M28.524 12.524h-2.004c-0.259 0-0.47 0.21-0.47 0.47s0.21 0.47 0.47 0.47h2.004c0.259 0 0.47-0.21 0.47-0.47s-0.21-0.47-0.47-0.47z"></path>
<path d="M28.005 8.022c-0.099-0.24-0.374-0.353-0.614-0.254l-1.851 0.767c-0.24 0.099-0.353 0.374-0.254 0.614 0.098 0.236 0.377 0.352 0.614 0.254l1.851-0.767c0.24-0.099 0.353-0.374 0.254-0.614z"></path>
<path d="M25.188 3.806c-0.183-0.183-0.481-0.183-0.664 0l-1.417 1.417c-0.171 0.171-0.182 0.453-0.025 0.637 0.176 0.205 0.498 0.218 0.689 0.027l1.417-1.417c0.183-0.183 0.183-0.481 0-0.664z"></path>
<path d="M20.973 0.989c-0.24-0.099-0.514 0.014-0.614 0.254l-0.767 1.851c-0.099 0.24 0.015 0.514 0.254 0.614 0.059 0.024 0.12 0.036 0.18 0.036 0.184 0 0.359-0.109 0.434-0.29l0.767-1.851c0.099-0.24-0.015-0.514-0.254-0.614z"></path>
</svg>
