<svg version="1.1" xmlns="http://www.w3.org/2000/svg" width="60" height="60" fill="#00695c" viewBox="0 0 32 32">
<title>team</title>
<path d="M32 13.419h-1.16l-1.729 0.91c-0.195-0.107-0.397-0.198-0.615-0.253l-2.174-0.544v-0.247c0.962-0.671 1.549-1.78 1.549-2.962v-0.902c0-2.005-1.571-3.683-3.502-3.741-0.098-0.003-0.195 0.001-0.292 0.006l0.564-1.32-2.733-2.732-1.611 1.049c-0.612-0.345-1.26-0.613-1.932-0.801l-0.398-1.88h-3.933l-0.398 1.88c-0.672 0.188-1.32 0.457-1.932 0.801l-1.611-1.049-2.731 2.731 0.554 1.321c-0.021-0.001-0.041-0.005-0.063-0.005-0.988-0.029-1.919 0.332-2.627 1.018-0.708 0.686-1.098 1.607-1.098 2.592v1.032c0 1.181 0.586 2.29 1.548 2.961v0.248l-1.418 0.355-2.571-1.499h-1.688v10.695l5.078 1.692h0.989l0.123-0.432 1.556 0.934c0.025 0.846 0.704 1.527 1.55 1.557 0.030 0.842 0.706 1.519 1.548 1.548 0.030 0.842 0.706 1.519 1.548 1.548 0.031 0.862 0.736 1.554 1.605 1.554 0.323 0 0.639-0.101 0.905-0.28l0.457 0.404c0.287 0.252 0.655 0.392 1.039 0.392h0.096c0.859 0 1.558-0.694 1.569-1.55 0.85-0.011 1.538-0.699 1.548-1.548 0.85-0.011 1.539-0.7 1.548-1.55 0.858-0.020 1.55-0.721 1.55-1.584 0-0.052-0.003-0.103-0.008-0.155l9.298-4.649zM26.839 9.42v0.902c0 0.916-0.495 1.772-1.292 2.233l-0.258 0.149 0.002 1.633 2.579 0.644-5.676 2.987v-1.39c0-0.694-0.28-1.329-0.739-1.799l1.771-0.443v-1.635l-0.258-0.149c-0.796-0.46-1.291-1.316-1.291-2.232v-1.032c0-0.704 0.278-1.362 0.784-1.852s1.176-0.754 1.877-0.727c1.379 0.041 2.501 1.257 2.501 2.709zM16.778 17.564l-2.336-0.747c-1.065-0.341-2.217-0.392-3.307-0.151l-0.296 0.066v-0.153c0-0.712 0.483-1.33 1.173-1.503l2.956-0.739v-1.635l-0.258-0.149c-0.796-0.46-1.291-1.316-1.291-2.232v-1.032c0-0.704 0.278-1.362 0.784-1.852s1.18-0.754 1.877-0.727c1.379 0.041 2.501 1.257 2.501 2.709v0.902c0 0.916-0.495 1.772-1.292 2.233l-0.258 0.149 0.002 1.633 2.956 0.739c0.69 0.173 1.173 0.791 1.173 1.503v1.934l-0.128 0.067h-0.316l-3.173-0.907c-0.25-0.071-0.508-0.1-0.766-0.11zM10.954 7.725c0.969-1.878 2.92-3.080 5.046-3.080 2.105 0 4.048 1.185 5.024 3.038-0.246 0.493-0.379 1.038-0.379 1.607v1.032c0 1.181 0.586 2.29 1.548 2.961v0.248l-2.065 0.517-2.065-0.517v-0.247c0.962-0.671 1.549-1.78 1.549-2.962v-0.902c0-2.005-1.571-3.683-3.502-3.741-0.988-0.029-1.919 0.332-2.627 1.018s-1.097 1.607-1.097 2.593v1.032c0 1.181 0.586 2.29 1.548 2.961v0.248l-2.065 0.517-2.065-0.517v-0.247c0.962-0.671 1.549-1.78 1.549-2.962v-0.902c0-0.607-0.146-1.184-0.4-1.696zM8.581 4.603l1.649-1.649 1.451 0.945 0.278-0.17c0.696-0.426 1.448-0.739 2.235-0.927l0.318-0.076 0.359-1.693h2.26l0.358 1.693 0.318 0.076c0.787 0.188 1.539 0.501 2.235 0.927l0.278 0.17 1.451-0.945 1.647 1.647-0.585 1.371c-0.398 0.171-0.768 0.413-1.089 0.724-0.021 0.021-0.039 0.043-0.060 0.064-1.216-1.933-3.366-3.147-5.682-3.147-2.333 0-4.489 1.226-5.702 3.178-0.325-0.34-0.711-0.615-1.139-0.807zM6.71 14.338v-1.635l-0.258-0.149c-0.796-0.46-1.291-1.316-1.291-2.232v-1.032c0-0.704 0.278-1.362 0.784-1.852s1.177-0.754 1.877-0.727c1.379 0.041 2.501 1.257 2.501 2.709v0.902c0 0.916-0.495 1.772-1.292 2.233l-0.258 0.149 0.002 1.633 1.771 0.443c-0.459 0.47-0.739 1.105-0.739 1.799v0.382l-1.61 0.358 0.042-0.146 0.020-0.954-2.722-1.588zM1.032 13.419h0.376l3.712 2.165-1.873 7.492-2.215-0.739zM5.245 23.742l-1.016-0.338 1.82-7.277 1.177 0.686v0.147l-1.938 6.782zM8.774 25.228c0-0.152 0.062-0.301 0.169-0.409l0.907-0.907c0.108-0.108 0.257-0.169 0.409-0.169 0.319 0 0.579 0.26 0.579 0.579 0 0.152-0.062 0.301-0.169 0.409l-0.907 0.907c-0.108 0.108-0.257 0.169-0.409 0.169-0.319 0-0.579-0.26-0.579-0.579zM10.323 26.776c0-0.152 0.062-0.301 0.169-0.409l0.907-0.907c0.108-0.108 0.257-0.169 0.409-0.169 0.319 0 0.579 0.26 0.579 0.579 0 0.152-0.062 0.301-0.169 0.409l-0.907 0.907c-0.108 0.108-0.257 0.169-0.409 0.169-0.319 0-0.579-0.26-0.579-0.579zM11.871 28.325c0-0.152 0.062-0.301 0.169-0.409l0.907-0.907c0.108-0.108 0.257-0.169 0.409-0.169 0.319 0 0.579 0.26 0.579 0.579 0 0.152-0.062 0.301-0.169 0.409l-0.907 0.907c-0.108 0.108-0.257 0.169-0.409 0.169-0.319 0-0.579-0.26-0.579-0.579zM13.998 30.452c-0.319 0-0.579-0.26-0.579-0.579 0-0.152 0.062-0.301 0.169-0.409l0.907-0.907c0.108-0.108 0.257-0.169 0.409-0.169 0.319 0 0.579 0.26 0.579 0.579 0 0.152-0.062 0.301-0.169 0.409l-0.907 0.907c-0.108 0.108-0.257 0.169-0.409 0.169zM16.494 30.968h-0.096c-0.132 0-0.258-0.048-0.356-0.135l-0.386-0.34 0.388-0.388c0.138-0.138 0.246-0.303 0.325-0.48l0.469 0.391c0.123 0.102 0.194 0.253 0.194 0.414 0 0.297-0.241 0.538-0.538 0.538zM21.122 26.323h-0.089c-0.13 0-0.256-0.046-0.355-0.129l-2.799-2.332-0.661 0.793 2.718 2.265c0.122 0.102 0.193 0.253 0.193 0.414 0 0.297-0.241 0.538-0.538 0.538h-0.113c-0.125 0-0.248-0.044-0.344-0.125l-2.803-2.336-0.661 0.793 2.718 2.265c0.123 0.102 0.194 0.252 0.194 0.413 0 0.297-0.241 0.538-0.538 0.538-0.198 0-0.391-0.070-0.543-0.197l-1.152-0.96c-0.254-0.519-0.775-0.88-1.386-0.902-0.030-0.842-0.706-1.519-1.548-1.548-0.030-0.842-0.706-1.519-1.548-1.548-0.030-0.862-0.736-1.554-1.605-1.554-0.424 0-0.839 0.172-1.139 0.472l-0.907 0.907c-0.054 0.054-0.099 0.116-0.145 0.177l-1.585-0.951 1.39-4.864 3.484-0.775c0.914-0.204 1.878-0.16 2.769 0.125l0.76 0.243-2.578 1.289c-0.589 0.295-0.955 0.888-0.955 1.546v0.102c0 0.953 0.776 1.729 1.729 1.729 0.313 0 0.621-0.085 0.889-0.247l1.922-1.152c0.386-0.231 0.904-0.181 1.238 0.119l4.361 3.925c0.117 0.106 0.184 0.256 0.184 0.413 0 0.306-0.249 0.555-0.555 0.555zM30.968 20.326l-8.695 4.348c-0.028-0.030-0.058-0.058-0.089-0.086l-4.36-3.925c-0.382-0.345-0.876-0.534-1.391-0.534-0.376 0-0.746 0.102-1.069 0.296l-1.923 1.153c-0.108 0.065-0.231 0.099-0.357 0.099-0.385 0-0.697-0.312-0.697-0.697v-0.102c0-0.266 0.148-0.504 0.385-0.623l2.879-1.44c0.493-0.247 1.078-0.302 1.609-0.149l3.243 0.926 0.786 0.020 9.679-5.094z"></path>
</svg>
