<svg xmlns="http://www.w3.org/2000/svg" width="60" height="60" fill="#00695c" viewBox="0 0 32 32"><path d="M31.977 12.399a5.666 5.666 0 00-.396-1.093.466.466 0 00-.837.405c.112.232.206.473.279.72h-6.419a10.145 10.145 0 00-2.482-2.81 4.705 4.705 0 011.064-.426v.123c0 .769.625 1.394 1.394 1.394h1.721c.769 0 1.394-.626 1.394-1.394v-.124c.719.191 1.385.55 1.945 1.053a.462.462 0 00.656-.035.464.464 0 00-.035-.656 5.649 5.649 0 00-2.567-1.317v-.401a4.37 4.37 0 00.728-1.13 1.467 1.467 0 001.338-1.459v-.278c0-.606-.411-1.118-.968-1.272V.898a.776.776 0 00-.775-.775h-3.049a2.885 2.885 0 00-2.882 2.882v.694a1.321 1.321 0 00-.968 1.272v.278c0 .765.589 1.395 1.338 1.459.182.411.429.795.728 1.13v.4a5.676 5.676 0 00-1.895.8 10.012 10.012 0 00-5.344-1.539c-1.891 0-3.714.524-5.292 1.501a5.595 5.595 0 00-1.838-.763v-.4a4.37 4.37 0 00.728-1.13 1.467 1.467 0 001.338-1.459V4.97c0-.606-.411-1.118-.968-1.272V2.012c0-1.042-.848-1.89-1.89-1.89H5.098c-1.042 0-1.89.848-1.89 1.89v1.686A1.321 1.321 0 002.24 4.97v.278c0 .765.589 1.395 1.338 1.459.182.411.429.795.728 1.13v.401a5.656 5.656 0 00-4.281 4.16.772.772 0 00.752.962h6.019a10.038 10.038 0 00-.897 3.538.464.464 0 10.927.061c.315-4.783 4.322-8.53 9.121-8.53 5.04 0 9.141 4.101 9.141 9.141s-4.101 9.141-9.141 9.141c-4.538 0-8.43-3.384-9.053-7.872a.463.463 0 10-.92.128 10.06 10.06 0 003.334 6.174 10.063 10.063 0 009.385 2.119l2.041 3.571a2.078 2.078 0 003.807-.484 2.064 2.064 0 00-.201-1.577l-1.971-3.449a10.055 10.055 0 002.725-11.959h6.131a.772.772 0 00.752-.962zm-5.676-2.616H24.58a.466.466 0 01-.465-.465v-.664c.398.23.852.354 1.325.354s.927-.123 1.325-.354v.664a.465.465 0 01-.465.465zm-1.332-8.731h2.894v1.932h-4.845a1.954 1.954 0 011.952-1.932zm-2.195 4.732h-.19a.536.536 0 01-.535-.535v-.278a.39.39 0 01.39-.39h.113a.465.465 0 00.465-.465v-.202h4.846v.202c0 .257.208.465.465.465h.113a.39.39 0 01.39.39v.278c0 .295-.24.535-.535.535h-.19a.465.465 0 00-.438.31 3.418 3.418 0 01-.777 1.245l-.219.223c-.327.333-.764.517-1.231.517s-.904-.184-1.231-.517l-.219-.223a3.418 3.418 0 01-.777-1.245.465.465 0 00-.438-.31zm-17.54 2.87c.398.23.852.354 1.325.354s.927-.123 1.325-.354v.664a.465.465 0 01-.465.465H5.698a.466.466 0 01-.465-.465zM4.137 2.012c0-.53.431-.961.961-.961h2.925c.53 0 .961.431.961.961v.972H4.138zm-.243 3.772h-.19a.536.536 0 01-.535-.535v-.278a.39.39 0 01.39-.39h.113a.465.465 0 00.465-.465v-.202h4.846v.202c0 .257.208.465.465.465h.113a.39.39 0 01.39.39v.278c0 .295-.24.535-.535.535h-.19a.465.465 0 00-.438.31 3.418 3.418 0 01-.777 1.245l-.219.223c-.327.333-.764.517-1.231.517s-.904-.184-1.231-.517l-.219-.223a3.418 3.418 0 01-.777-1.245.465.465 0 00-.438-.31zm5.156 4.447a10.087 10.087 0 00-1.768 2.201H.978a4.73 4.73 0 013.327-3.237v.124c0 .769.625 1.394 1.394 1.394H7.42c.769 0 1.394-.626 1.394-1.394v-.123c.346.091.679.221.995.389-.262.202-.516.417-.76.646zm14.483 19c.152.266.192.576.111.872s-.272.543-.538.695a1.148 1.148 0 01-1.566-.427l-1.95-3.412a10.075 10.075 0 002.031-1.073z"/><path d="M8.645 20.924a2.06 2.06 0 00.916 1.641c-.047.14-.089.282-.125.427a.772.772 0 00.752.962h11.569a.772.772 0 00.752-.962 5.859 5.859 0 00-.135-.457c.522-.371.85-.965.873-1.611a2.05 2.05 0 00-.58-1.511.247.247 0 01-.025-.298c.196-.322.299-.693.299-1.072 0-.71-.358-1.362-.958-1.744-.098-.062-.147-.17-.123-.269.112-.46.061-.949-.143-1.377a2.075 2.075 0 00-1.23-1.076c-.11-.034-.178-.15-.174-.269a2.559 2.559 0 00-.037-.319.465.465 0 10-.915.165c.013.074.021.146.024.216.019.501.347.94.816 1.091.3.097.541.307.677.592.114.239.141.501.079.757-.118.486.094.997.527 1.273a1.134 1.134 0 01.364 1.549A1.174 1.174 0 0022 20.059a1.134 1.134 0 01-.013 1.591 5.663 5.663 0 00-3.729-2.812v-.363c.179-.213.337-.443.471-.687a1.467 1.467 0 001.175-1.436v-.278c0-.475-.253-.902-.646-1.135v-.845a.534.534 0 00-.627-.525 3.628 3.628 0 01-2.39-.395.603.603 0 00-.585 0 3.628 3.628 0 01-2.39.395.532.532 0 00-.628.525v.845a1.318 1.318 0 00-.646 1.135v.278c0 .708.506 1.301 1.175 1.436.135.245.291.474.471.688v.375a5.676 5.676 0 00-3.692 2.833 1.129 1.129 0 01-.05-1.624c.368-.381.431-.968.152-1.427a1.137 1.137 0 01.364-1.549c.434-.276.646-.788.527-1.273a1.125 1.125 0 01.079-.757c.136-.285.376-.495.677-.592.469-.152.796-.59.815-1.091l.001-.015c.018-.357.269-2.137 3.439-2.137 1.041 0 1.87.194 2.465.576a.464.464 0 10.502-.782c-.748-.48-1.746-.723-2.968-.723-3.11 0-4.297 1.627-4.367 3.019.004.12-.065.236-.174.269a2.078 2.078 0 00-1.23 1.076 2.071 2.071 0 00-.143 1.377c.024.099-.025.207-.123.269a2.058 2.058 0 00-.958 1.744c0 .379.104.749.299 1.072a.249.249 0 01-.025.298 2.05 2.05 0 00-.58 1.511zm5.919-1.589c.411.255.885.392 1.381.392s.971-.137 1.381-.392v.779a.466.466 0 01-.465.465h-1.833a.466.466 0 01-.465-.465v-.779zm-1.11-2.448a.536.536 0 01-.535-.535v-.278c0-.179.121-.334.295-.377a.464.464 0 00.351-.451v-.704a4.58 4.58 0 002.381-.472c.73.367 1.558.532 2.381.472v.704c0 .213.145.399.351.451a.389.389 0 01.295.377v.278c0 .295-.24.535-.535.535h-.009a.466.466 0 00-.421.267c-.16.34-.375.649-.638.917l-.216.22c-.321.327-.75.507-1.209.507s-.888-.18-1.209-.507l-.216-.22a3.34 3.34 0 01-.638-.917.466.466 0 00-.421-.267zm.181 2.923v.304c0 .769.626 1.394 1.394 1.394h1.833c.769 0 1.394-.625 1.394-1.394v-.319a4.739 4.739 0 013.298 3.229H10.39a4.744 4.744 0 013.245-3.214z"/></svg>