<svg xmlns="http://www.w3.org/2000/svg" width="60" height="60" fill="#00695c" viewBox="0 0 32 32"><path d="M27.5 18.453H26v-1.5c0-1.379-1.122-2.5-2.5-2.5H21v-1.5a.5.5 0 00-.5-.5h-4v-1.071c.86-.223 1.5-1 1.5-1.929 0-1.103-.897-2-2-2s-2 .897-2 2c0 .929.64 1.706 1.5 1.929v1.071h-4a.5.5 0 00-.5.5v1.5H8.5a2.503 2.503 0 00-2.5 2.5v1.5H4.5c-.827 0-1.5.673-1.5 1.5v6c0 .827.673 1.5 1.5 1.5H6v1.5c0 1.378 1.122 2.5 2.5 2.5h15c1.378 0 2.5-1.122 2.5-2.5v-1.5h1.5c.827 0 1.5-.673 1.5-1.5v-6c0-.827-.673-1.5-1.5-1.5zm-12.5-9a1 1 0 112 0 1 1 0 01-2 0zm-10.5 17a.5.5 0 01-.5-.5v-6a.5.5 0 01.5-.5H6v7zm7.5-13h8v1h-8zm13 15.5c0 .827-.673 1.5-1.5 1.5h-15c-.827 0-1.5-.673-1.5-1.5v-12c0-.827.673-1.5 1.5-1.5h15c.827 0 1.5.673 1.5 1.5zm3-3a.5.5 0 01-.5.5H26v-7h1.5a.5.5 0 01.5.5z"/><path d="M20.5 23.453h-9a.5.5 0 00-.5.5v.5c0 2.757 2.243 5 5 5s5-2.243 5-5v-.5a.5.5 0 00-.5-.5zm-4.5 5c-2.206 0-4-1.794-4-4h8c0 2.206-1.794 4-4 4zm-3-8c0-1.103-.897-2-2-2s-2 .897-2 2 .897 2 2 2 2-.897 2-2zm-3 0a1 1 0 112 0 1 1 0 01-2 0zm11-2c-1.103 0-2 .897-2 2s.897 2 2 2 2-.897 2-2-.897-2-2-2zm0 3a1 1 0 110-2 1 1 0 010 2zM8.146 11.306A.5.5 0 009 10.952v-1.5h3c.827 0 1.5-.673 1.5-1.5v-6c0-.827-.673-1.5-1.5-1.5H2c-.827 0-1.5.673-1.5 1.5v6c0 .827.673 1.5 1.5 1.5h4.293zM1.5 7.952v-6a.5.5 0 01.5-.5h10a.5.5 0 01.5.5v6a.5.5 0 01-.5.5H8.5a.5.5 0 00-.5.5v.793L6.854 8.599a.5.5 0 00-.354-.146H2a.5.5 0 01-.5-.5zM30 2.453H20c-.827 0-1.5.673-1.5 1.5v6c0 .827.673 1.5 1.5 1.5h3v1.5a.502.502 0 00.854.354l1.854-1.854h4.293c.827 0 1.5-.673 1.5-1.5v-6c0-.827-.673-1.5-1.5-1.5zm.5 7.5a.5.5 0 01-.5.5h-4.5a.504.504 0 00-.354.146L24 11.745v-.793a.5.5 0 00-.5-.5H20a.5.5 0 01-.5-.5v-6a.5.5 0 01.5-.5h10a.5.5 0 01.5.5z"/><path d="M2.5 2.453h9v1h-9zm0 3.999h9v1h-9zm1-2h7v1h-7zm17 0h9v1h-9zm0 4.001h9v1h-9zm1-2.001h7v1h-7z"/></svg>