<svg xmlns="http://www.w3.org/2000/svg" width="60" height="60" fill="#00695c" viewBox="0 0 32 32"><path d="M19.75 0C12.995 0 7.5 5.495 7.5 12.25c0 2.872.994 5.515 2.655 7.606l-1.388 1.388-.331-.331a1.409 1.409 0 00-1.989 0 1.41 1.41 0 00-.275 1.601L.686 28c-.914.914-.914 2.401 0 3.315s2.401.914 3.315 0l5.486-5.486a1.41 1.41 0 001.601-.275 1.409 1.409 0 000-1.989l-.331-.331 1.388-1.388a12.191 12.191 0 007.606 2.655c6.755 0 12.25-5.495 12.25-12.25S26.506.001 19.751.001zM1.348 30.652a1.408 1.408 0 01-.274-1.6l1.875 1.875a1.408 1.408 0 01-1.6-.274zm2.32-.332l-.663-.663 5.098-5.098.663.663zm6.756-5.429a.469.469 0 01-.663 0l-1.326-1.326a.469.469 0 00-.663 0l-5.43 5.43-.663-.663 5.43-5.43a.469.469 0 000-.663.469.469 0 01.663-.663l2.652 2.652a.469.469 0 010 .663zm-.332-2.321l-.663-.663 1.338-1.338c.213.229.434.45.663.663zm9.658.993c-6.238 0-11.313-5.075-11.313-11.313S13.512.937 19.75.937 31.063 6.012 31.063 12.25 25.988 23.563 19.75 23.563z"/><path d="M19.75 1.875a10.39 10.39 0 00-6.609 2.377.47.47 0 00.598.722 9.45 9.45 0 016.012-2.162c5.204 0 9.438 4.234 9.438 9.438s-4.234 9.438-9.438 9.438-9.438-4.234-9.438-9.438c0-2.191.768-4.326 2.162-6.012a.47.47 0 00-.722-.598 10.39 10.39 0 00-2.377 6.609c0 5.721 4.654 10.375 10.375 10.375s10.375-4.654 10.375-10.375S25.472 1.874 19.751 1.874z"/><path d="M14.125 12.719c-.775 0-1.406.631-1.406 1.406s.631 1.406 1.406 1.406a1.408 1.408 0 001.269-2.012l1.875-1.875a1.399 1.399 0 001.212 0l1.875 1.875a1.408 1.408 0 001.269 2.012 1.408 1.408 0 001.269-2.012l1.875-1.875a1.408 1.408 0 002.012-1.269c0-.775-.631-1.406-1.406-1.406a1.408 1.408 0 00-1.269 2.012l-1.875 1.875a1.399 1.399 0 00-1.212 0l-1.875-1.875a1.408 1.408 0 00-1.269-2.012 1.408 1.408 0 00-1.269 2.012l-1.875 1.875a1.4 1.4 0 00-.606-.138zm0 1.875a.47.47 0 11.001-.94.47.47 0 01-.001.94zm11.25-4.688a.469.469 0 110 .938.469.469 0 010-.938zm-3.75 3.75a.469.469 0 110 .938.469.469 0 010-.938zm-3.75-3.75a.469.469 0 110 .938.469.469 0 010-.938z"/></svg>