<svg xmlns="http://www.w3.org/2000/svg" width="60" height="60" fill="#00695c" viewBox="0 0 32 32"><path d="M28.187 8.438a2.816 2.816 0 00-2.813-2.813h-1.099a2.817 2.817 0 00-2.651-1.875h-1.143l-.405-1.62A2.81 2.81 0 0017.347 0H14.65a2.81 2.81 0 00-2.729 2.13l-.405 1.62h-1.143a2.817 2.817 0 00-2.651 1.875H6.623A2.816 2.816 0 003.81 8.438v20.75a2.816 2.816 0 002.813 2.813h18.75c.751 0 1.456-.29 1.987-.818a2.78 2.78 0 00.826-1.987V8.438zM9.437 6.563a.94.94 0 01.938-.938h1.875c.43 0 .805-.293.909-.71l.582-2.33a.936.936 0 01.909-.71h2.697c.431 0 .805.292.91.71l.582 2.33c.104.417.479.71.91.71h1.875a.94.94 0 01.938.938v.938H9.437v-.938zM26.04 29.852a.935.935 0 01-.665.272H6.625a.94.94 0 01-.938-.937V8.437a.94.94 0 01.938-.938h.938v.938c0 .518.42.938.938.938h15c.518 0 .938-.42.938-.938v-.938h.938a.94.94 0 01.938.938v20.758a.92.92 0 01-.273.657z"/><path d="M14.788 11.587a.938.938 0 00-1.326 0l-3.087 3.087-1.212-1.212a.938.938 0 00-1.326 1.326l1.875 1.875a.935.935 0 001.326 0l3.75-3.75a.938.938 0 000-1.326zm0 5.625a.938.938 0 00-1.326 0l-3.087 3.087-1.212-1.212a.938.938 0 00-1.326 1.326l1.875 1.875a.935.935 0 001.326 0l3.75-3.75a.938.938 0 000-1.326zm0 5.625a.938.938 0 00-1.326 0l-3.087 3.087-1.212-1.212a.938.938 0 00-1.326 1.326l1.875 1.875a.935.935 0 001.326 0l3.75-3.75a.938.938 0 000-1.326zm8.712-9.649h-5.625a.938.938 0 000 1.876H23.5a.938.938 0 000-1.876zm0 5.625h-5.625a.938.938 0 000 1.876H23.5a.938.938 0 000-1.876zm0 5.625h-5.625a.938.938 0 000 1.876H23.5a.938.938 0 000-1.876zm-6.562-19.75a.938.938 0 11-1.876 0 .938.938 0 011.876 0z"/></svg>