<svg xmlns="http://www.w3.org/2000/svg" width="32" height="32" fill="#01579b"><path d="M31.994 12.233a.493.493 0 00-.022-.108.52.52 0 00-.03-.092.546.546 0 00-.053-.082.51.51 0 00-.071-.083c-.009-.007-.012-.018-.021-.025l-5.129-3.984V3.73a1.6 1.6 0 00-1.6-1.6h-5.78L16.974.333a1.58 1.58 0 00-1.945 0L12.714 2.13h-5.78a1.6 1.6 0 00-1.6 1.6v4.129L.206 11.843c-.009.008-.013.018-.021.025a.51.51 0 00-.071.083.442.442 0 00-.053.082.495.495 0 00-.03.092.55.55 0 00-.022.107c0 .011-.006.021-.006.032V30.4c.001.339.111.669.313.941.003.005.004.011.007.015s.012.009.017.015c.3.394.766.627 1.261.629h28.801a1.595 1.595 0 001.265-.631c.004-.005.011-.007.014-.012s.004-.01.008-.015a1.58 1.58 0 00.313-.941V12.267c0-.011-.006-.021-.006-.032zM15.679 1.176a.511.511 0 01.636 0l1.23.955h-3.093l1.227-.955zM1.733 30.933L15.679 20.1a.511.511 0 01.636 0l13.95 10.833H1.732zm29.2-.831L16.972 19.259a1.58 1.58 0 00-1.945 0L1.065 30.102V13.078l8.74 6.787a.534.534 0 10.654-.844L1.58 12.126 5.332 9.21v4.121a.533.533 0 101.066 0V3.73c0-.295.239-.533.533-.533h18.134c.295 0 .533.239.533.533v9.601a.533.533 0 101.066 0V9.21l3.752 2.916-8.895 6.907a.535.535 0 00.122.92.533.533 0 00.531-.077l8.756-6.799v17.024z"/><path d="M22.399 12.799v-2.133a6.4 6.4 0 10-6.4 6.4.533.533 0 100-1.066 5.334 5.334 0 115.334-5.334v2.133a1.067 1.067 0 01-2.134 0v-2.133a.533.533 0 10-1.066 0A2.133 2.133 0 1116 8.533a.533.533 0 100-1.066 3.2 3.2 0 102.156 5.558 2.127 2.127 0 004.244-.224z"/></svg>