<svg xmlns="http://www.w3.org/2000/svg" width="60" height="60" fill="#00695c" viewBox="0 0 32 32"><path d="M16 5.01c-4.403 0-7.984 3.582-7.984 7.984 0 3.168 1.151 4.639 2.264 6.061.713.911 1.386 1.771 1.762 3.086.208.729.365 2.149.439 2.908h-.488a.47.47 0 00-.47.47v4.509c0 1.088.885 1.973 1.973 1.973h5.01a1.975 1.975 0 001.973-1.973v-4.509a.47.47 0 00-.47-.47h-.488c.073-.759.23-2.179.439-2.908.111-.387.251-.75.429-1.11a.47.47 0 00-.841-.417 7.42 7.42 0 00-.491 1.269c-.24.838-.408 2.406-.479 3.166h-5.152c-.072-.76-.24-2.328-.479-3.166-.426-1.491-1.188-2.465-1.925-3.407-1.062-1.356-2.064-2.638-2.064-5.482 0-3.885 3.16-7.045 7.045-7.045s7.045 3.16 7.045 7.045c0 2.844-1.003 4.125-2.064 5.482-.115.147-.274.296-.297.49a.472.472 0 00.621.499c.19-.066.298-.26.416-.411 1.113-1.422 2.264-2.893 2.264-6.061 0-4.403-3.582-7.984-7.984-7.984zm3.538 25.017c0 .57-.464 1.033-1.033 1.033h-5.01c-.57 0-1.033-.464-1.033-1.033v-.031h7.076v.031zm0-.97h-7.076v-1.065h7.076v1.065zm0-3.069v1.065h-7.076v-1.065h7.076z"/><path d="M18.004 13.464a.47.47 0 00.47-.47v-.501a1.975 1.975 0 00-1.973-1.973h-.031V9.487a.47.47 0 00-.94 0v1.044a2.226 2.226 0 00-2.004 2.212c0 1.226.997 2.223 2.223 2.223h.501c.708 0 1.284.576 1.284 1.284s-.576 1.284-1.284 1.284h-.751c-.57 0-1.033-.463-1.033-1.033a.47.47 0 00-.94 0c0 1.088.885 1.973 1.973 1.973h.031v1.033a.47.47 0 00.94 0v-1.044a2.226 2.226 0 002.004-2.212 2.225 2.225 0 00-2.223-2.223h-.501c-.708 0-1.284-.576-1.284-1.284s.576-1.284 1.284-1.284h.751c.57 0 1.033.464 1.033 1.033v.501c0 .259.21.47.47.47zM16 0a.47.47 0 00-.47.47v2.004a.47.47 0 00.94 0V.47A.47.47 0 0016 0zm-3.592 3.095l-.767-1.851a.47.47 0 10-.868.36l.767 1.851a.474.474 0 00.653.236.474.474 0 00.215-.595zM8.893 5.223L7.476 3.806a.47.47 0 00-.664.664l1.417 1.417a.468.468 0 00.332.138c.411 0 .621-.512.332-.802zM6.46 8.534l-1.851-.767a.47.47 0 00-.36.868l1.851.767a.473.473 0 00.628-.295.473.473 0 00-.269-.572zm-.981 3.99H3.475a.47.47 0 000 .94h2.004a.47.47 0 000-.94zm1.235 4.316a.47.47 0 00-.614-.254l-1.851.767a.475.475 0 00-.269.573c.08.261.376.4.628.295l1.851-.767a.47.47 0 00.254-.614zm21.037.513l-1.851-.767a.47.47 0 00-.36.868l1.851.767a.473.473 0 00.628-.295.475.475 0 00-.269-.573zm.773-4.829H26.52a.47.47 0 000 .94h2.004a.47.47 0 000-.94zm-.519-4.502a.47.47 0 00-.614-.254l-1.851.767a.47.47 0 10.36.868l1.851-.767a.47.47 0 00.254-.614zm-2.817-4.216a.47.47 0 00-.664 0l-1.417 1.417a.474.474 0 00-.025.637.474.474 0 00.689.027l1.417-1.417a.47.47 0 000-.664zM20.973.989a.47.47 0 00-.614.254l-.767 1.851a.47.47 0 00.868.36l.767-1.851a.47.47 0 00-.254-.614z"/></svg>