<svg xmlns="http://www.w3.org/2000/svg" width="60" height="60" fill="#00695c" viewBox="0 0 32 32"><path d="M32 13.419h-1.16l-1.729.91a2.604 2.604 0 00-.615-.253l-2.174-.544v-.247a3.623 3.623 0 001.549-2.962v-.902c0-2.005-1.571-3.683-3.502-3.741a3.547 3.547 0 00-.292.006l.564-1.32-2.733-2.732-1.611 1.049a8.71 8.71 0 00-1.932-.801l-.398-1.88h-3.933l-.398 1.88a8.758 8.758 0 00-1.932.801l-1.611-1.049-2.731 2.731.554 1.321c-.021-.001-.041-.005-.063-.005a3.59 3.59 0 00-2.627 1.018 3.58 3.58 0 00-1.098 2.592v1.032c0 1.181.586 2.29 1.548 2.961v.248l-1.418.355-2.571-1.499H-.001v10.695l5.078 1.692h.989l.123-.432 1.556.934a1.607 1.607 0 001.55 1.557c.03.842.706 1.519 1.548 1.548.03.842.706 1.519 1.548 1.548a1.61 1.61 0 001.605 1.554c.323 0 .639-.101.905-.28l.457.404c.287.252.655.392 1.039.392h.096c.859 0 1.558-.694 1.569-1.55a1.569 1.569 0 001.548-1.548 1.57 1.57 0 001.548-1.55 1.587 1.587 0 001.542-1.739l9.298-4.649zM26.839 9.42v.902a2.59 2.59 0 01-1.292 2.233l-.258.149.002 1.633 2.579.644-5.676 2.987v-1.39c0-.694-.28-1.329-.739-1.799l1.771-.443v-1.635l-.258-.149a2.588 2.588 0 01-1.291-2.232V9.288c0-.704.278-1.362.784-1.852s1.176-.754 1.877-.727c1.379.041 2.501 1.257 2.501 2.709zm-10.061 8.144l-2.336-.747a6.38 6.38 0 00-3.307-.151l-.296.066v-.153c0-.712.483-1.33 1.173-1.503l2.956-.739v-1.635l-.258-.149a2.588 2.588 0 01-1.291-2.232V9.289c0-.704.278-1.362.784-1.852s1.18-.754 1.877-.727c1.379.041 2.501 1.257 2.501 2.709v.902a2.59 2.59 0 01-1.292 2.233l-.258.149.002 1.633 2.956.739c.69.173 1.173.791 1.173 1.503v1.934l-.128.067h-.316l-3.173-.907c-.25-.071-.508-.1-.766-.11zm-5.824-9.839A5.695 5.695 0 0116 4.645a5.702 5.702 0 015.024 3.038 3.585 3.585 0 00-.379 1.607v1.032c0 1.181.586 2.29 1.548 2.961v.248l-2.065.517-2.065-.517v-.247a3.623 3.623 0 001.549-2.962V9.42c0-2.005-1.571-3.683-3.502-3.741-.988-.029-1.919.332-2.627 1.018s-1.097 1.607-1.097 2.593v1.032c0 1.181.586 2.29 1.548 2.961v.248l-2.065.517-2.065-.517v-.247a3.623 3.623 0 001.549-2.962V9.42c0-.607-.146-1.184-.4-1.696zM8.581 4.603l1.649-1.649 1.451.945.278-.17a7.71 7.71 0 012.235-.927l.318-.076.359-1.693h2.26l.358 1.693.318.076a7.71 7.71 0 012.235.927l.278.17 1.451-.945 1.647 1.647-.585 1.371a3.61 3.61 0 00-1.089.724l-.06.064a6.74 6.74 0 00-5.682-3.147A6.734 6.734 0 0010.3 6.791a3.636 3.636 0 00-1.139-.807zM6.71 14.338v-1.635l-.258-.149a2.588 2.588 0 01-1.291-2.232V9.29c0-.704.278-1.362.784-1.852s1.177-.754 1.877-.727c1.379.041 2.501 1.257 2.501 2.709v.902a2.59 2.59 0 01-1.292 2.233l-.258.149.002 1.633 1.771.443a2.569 2.569 0 00-.739 1.799v.382l-1.61.358.042-.146.02-.954-2.722-1.588zm-5.678-.919h.376l3.712 2.165-1.873 7.492-2.215-.739zm4.213 10.323l-1.016-.338 1.82-7.277 1.177.686v.147l-1.938 6.782zm3.529 1.486c0-.152.062-.301.169-.409l.907-.907a.58.58 0 01.819.819l-.907.907a.58.58 0 01-.988-.41zm1.549 1.548c0-.152.062-.301.169-.409l.907-.907a.58.58 0 01.819.819l-.907.907a.58.58 0 01-.988-.41zm1.548 1.549c0-.152.062-.301.169-.409l.907-.907a.58.58 0 01.819.819l-.907.907a.58.58 0 01-.988-.41zm2.127 2.127a.58.58 0 01-.41-.988l.907-.907a.58.58 0 01.819.819l-.907.907a.582.582 0 01-.409.169zm2.496.516h-.096a.535.535 0 01-.356-.135l-.386-.34.388-.388c.138-.138.246-.303.325-.48l.469.391a.538.538 0 01-.344.952zm4.628-4.645h-.089a.553.553 0 01-.355-.129l-2.799-2.332-.661.793 2.718 2.265a.539.539 0 01-.345.952h-.113a.535.535 0 01-.344-.125l-2.803-2.336-.661.793 2.718 2.265a.538.538 0 01-.344.951.849.849 0 01-.543-.197l-1.152-.96a1.606 1.606 0 00-1.386-.902 1.606 1.606 0 00-1.548-1.548 1.606 1.606 0 00-1.548-1.548 1.609 1.609 0 00-2.744-1.082l-.907.907c-.054.054-.099.116-.145.177l-1.585-.951 1.39-4.864 3.484-.775a5.323 5.323 0 012.769.125l.76.243-2.578 1.289a1.72 1.72 0 00-.955 1.546v.102a1.731 1.731 0 002.618 1.482l1.922-1.152a1.066 1.066 0 011.238.119l4.361 3.925a.556.556 0 01-.371.968zm9.846-5.997l-8.695 4.348a1.45 1.45 0 00-.089-.086l-4.36-3.925a2.077 2.077 0 00-2.46-.238l-1.923 1.153a.697.697 0 01-1.054-.598v-.102c0-.266.148-.504.385-.623l2.879-1.44a2.241 2.241 0 011.609-.149l3.243.926.786.02 9.679-5.094z"/></svg>